<?xml version="1.0" encoding="UTF-8" standalone="no"?>
<!-- Created with Inkscape (http://www.inkscape.org/) -->

<svg
   width="210mm"
   height="297mm"
   viewBox="0 0 210 297"
   version="1.1"
   id="svg5"
   xmlns:xlink="http://www.w3.org/1999/xlink"
   xmlns="http://www.w3.org/2000/svg"
   xmlns:svg="http://www.w3.org/2000/svg">
  <defs
     id="defs2">
    <linearGradient
       id="linearGradient6581">
      <stop
         style="stop-color:#690559;stop-opacity:1;"
         offset="0"
         id="stop6577" />
      <stop
         style="stop-color:#690559;stop-opacity:0;"
         offset="1"
         id="stop6579" />
    </linearGradient>
    <linearGradient
       id="linearGradient6573">
      <stop
         style="stop-color:#953708;stop-opacity:1;"
         offset="0"
         id="stop6569" />
      <stop
         style="stop-color:#953708;stop-opacity:0;"
         offset="1"
         id="stop6571" />
    </linearGradient>
    <linearGradient
       id="linearGradient6565">
      <stop
         style="stop-color:#890725;stop-opacity:1;"
         offset="0"
         id="stop6561" />
      <stop
         style="stop-color:#890725;stop-opacity:0;"
         offset="1"
         id="stop6563" />
    </linearGradient>
    <marker
       style="overflow:visible"
       id="Arrow1Lstart"
       refX="0.0"
       refY="0.0"
       orient="auto">
      <path
         transform="scale(0.8) translate(12.5,0)"
         style="fill-rule:evenodd;fill:context-stroke;stroke:context-stroke;stroke-width:1.0pt"
         d="M 0.0,0.0 L 5.0,-5.0 L -12.5,0.0 L 5.0,5.0 L 0.0,0.0 z "
         id="path7204" />
    </marker>
    <linearGradient
       id="linearGradient3935">
      <stop
         style="stop-color:#ff0000;stop-opacity:1;"
         offset="0"
         id="stop3933" />
    </linearGradient>
    <linearGradient
       xlink:href="#linearGradient6565"
       id="linearGradient6567"
       x1="86.700415"
       y1="9.9544542"
       x2="112.94359"
       y2="9.9544542"
       gradientUnits="userSpaceOnUse" />
    <linearGradient
       xlink:href="#linearGradient6573"
       id="linearGradient6575"
       x1="53.793628"
       y1="32.271422"
       x2="79.598647"
       y2="32.271422"
       gradientUnits="userSpaceOnUse" />
    <linearGradient
       xlink:href="#linearGradient6581"
       id="linearGradient6583"
       x1="-3.620478"
       y1="6.7372593"
       x2="26.578906"
       y2="6.7372593"
       gradientUnits="userSpaceOnUse" />
  </defs>
  <g
     id="layer1">
    <path
       style="fill:url(#linearGradient6583);fill-opacity:1;stroke:none;stroke-width:20;stroke-linejoin:round"
       id="path3419"
       d="m 23.666206,16.578145 c -6.820149,9.89911 -1.29728,5.594646 -12.336022,0.962348 C 0.29144207,12.908196 -1.9696903,27.17524 -2.7059811,14.040592 -3.442272,0.90594261 -5.6642169,11.535736 1.4381156,-0.45947304 8.5404479,-12.454681 1.2067602,-10.039049 13.58257,-4.7368018 c 12.375811,5.30224715 6.569444,-3.3713489 8.19768,8.4294117 1.628237,11.8007601 8.706104,2.986426 1.885956,12.8855351 z"
       transform="matrix(0.53447794,0,0,0.53447946,2.3312792,4.8657399)" />
    <path
       style="fill:url(#linearGradient6575);fill-opacity:1;stroke:none;stroke-width:20;stroke-linejoin:round"
       id="path3606"
       d="m 76.16186,22.856998 c 6.96556,9.03031 -0.647489,-0.629472 0.326358,10.820751 0.973847,11.450223 8.078344,5.917975 -3.149713,10.173019 -11.228058,4.255045 -3.954871,0.66439 -11.250102,-7.257455 C 54.793172,28.671468 51.28726,39.906623 55.814987,29.321909 60.342713,18.737196 52.83376,24.923698 63.774696,23.897181 74.715632,22.870665 69.1963,13.826688 76.16186,22.856998 Z"
       transform="matrix(0.62549477,0,0,0.62549147,-33.251418,-11.718832)" />
    <path
       style="opacity:1;fill:url(#linearGradient6567);fill-opacity:1;stroke:none;stroke-width:20;stroke-linejoin:round;stroke-opacity:1"
       id="path3612"
       d="M 93.185466,0.80166277 C 103.69827,-1.4058518 92.556375,-3.9163677 102.98774,0.57485615 113.4191,5.0660797 112.9941,0.38252006 112.92162,10.317527 c -0.0725,9.935008 -0.85891,1.056023 -8.50811,7.332902 -7.649188,6.276879 -3.93568,4.249614 -13.459995,1.861296 -9.524311,-2.388319 -0.106445,1.289847 0.09798,-9.322785 0.204427,-10.61263174 -8.378836,-7.1797628 2.133969,-9.38727723 z"
       transform="matrix(0.61505158,0,0,0.61504832,-52.929012,2.3441963)" />
    <path
       style="fill:#e2e2e2;fill-opacity:1;fill-rule:nonzero;stroke:#e2e2e2;stroke-width:0.79375;stroke-miterlimit:4;stroke-dasharray:none;stroke-opacity:1"
       d="m 14.397151,11.58587 c -0.05045,-0.03525 -0.159216,-0.244187 -0.241703,-0.464287 -0.267002,-0.712452 -0.285938,-0.723397 -0.888733,-0.513742 -0.838512,0.291641 -2.477782,0.67119 -3.4004818,0.787337 -1.1428005,0.14385 -2.7689934,0.06335 -3.6207813,-0.179242 C 3.9420834,10.559936 2.5384139,8.8740626 2.268572,6.4395077 L 2.2081242,5.8942694 2.5901859,5.7260653 C 3.7572863,5.2122497 5.9700267,5.1477912 7.690907,5.5774762 c 2.541505,0.6345951 4.570409,1.8787708 5.923034,3.6321554 0.735485,0.9533954 1.269434,2.0995894 1.082829,2.3244394 -0.111146,0.133933 -0.168031,0.14377 -0.299632,0.05181 z M 10.126522,10.863379 C 10.769593,10.766853 10.82812,10.701224 11.521271,9.2993228 12.116666,8.0951373 12.169506,8.2950214 11.059023,7.550748 10.407693,7.1142124 9.8541856,6.8274073 9.0552993,6.512504 L 8.6059187,6.3353671 8.679215,6.5291827 c 0.371357,0.9819639 0.05141,2.4716646 -0.7162299,3.334829 L 7.6526047,10.213016 7.3855517,9.9076377 C 7.2386728,9.739681 6.9924918,9.3520339 6.8384866,9.0462011 6.4644226,8.3033508 6.3943017,7.2603136 6.6647571,6.4620633 6.7621682,6.1745862 6.827589,5.9251136 6.8101542,5.9076744 6.7927059,5.890233 6.4520845,5.8388386 6.0531974,5.7934777 5.2357737,5.700495 3.9518388,5.8056188 3.2121964,6.0260979 2.8051825,6.1474252 2.7542935,6.188983 2.755438,6.3991879 c 0.00436,0.8096598 0.5914188,2.2062856 1.2342676,2.9366328 0.7262841,0.8251333 2.0414224,1.4448943 3.4276613,1.6152923 0.6541715,0.08041 1.8461453,0.04182 2.7091621,-0.08773 z m 2.552027,-0.594468 c 0.412246,-0.127901 0.762983,-0.272884 0.779414,-0.3221739 0.03185,-0.095589 -0.892495,-1.2609571 -0.999498,-1.2600915 -0.03492,2.622e-4 -0.283271,0.4339732 -0.551862,0.9637606 l -0.488342,0.9632458 0.255368,-0.0561 c 0.140457,-0.03084 0.592668,-0.160737 1.00492,-0.28865 z M 8.0325906,8.8135744 C 8.2659479,8.3499079 8.294204,8.208343 8.293129,7.5082514 8.2918347,6.5661104 8.1412756,6.2022203 7.7043185,6.0836374 7.5489625,6.0414905 7.3929428,6.0228511 7.3575925,6.0422281 7.3222279,6.0616228 7.2093222,6.3540708 7.1066305,6.6921396 6.9631863,7.1643785 6.9332353,7.4211245 6.9773095,7.8001556 7.0442782,8.3759854 7.4977101,9.4151686 7.6607688,9.3664983 7.7213133,9.3484336 7.8886317,9.0996096 8.0325889,8.8135715 Z"
       id="path1208" />
  </g>
</svg>
